<?xml version="1.0" encoding="UTF-8"?><svg xmlns="http://www.w3.org/2000/svg" xmlns:xlink="http://www.w3.org/1999/xlink" contentScriptType="text/ecmascript" width="810" zoomAndPan="magnify" contentStyleType="text/css" viewBox="0 0 810 809.999993" height="809.999993" preserveAspectRatio="xMidYMid meet" version="1.0"><defs><clipPath id="clip-0"><path d="M 3 223 L 807 223 L 807 681.09375 L 3 681.09375 Z M 3 223 " clip-rule="nonzero"/></clipPath><clipPath id="clip-1"><path d="M 153 129.09375 L 738 129.09375 L 738 544 L 153 544 Z M 153 129.09375 " clip-rule="nonzero"/></clipPath></defs><g clip-path="url(#clip-0)"><path fill="rgb(11.759949%, 79.60968%, 65.879822%)" d="M 797.359375 637.132812 L 721.398438 574.335938 C 720.140625 573.707031 719.515625 573.082031 718.257812 572.453125 C 718.257812 571.195312 718.886719 569.941406 718.886719 568.683594 L 718.886719 248.410156 C 718.886719 235.222656 708.84375 225.175781 696.285156 223.292969 L 671.175781 248.410156 L 693.148438 248.410156 L 693.148438 568.683594 L 116.222656 568.683594 L 116.222656 420.480469 C 111.203125 418.59375 106.808594 416.082031 101.785156 413.570312 L 91.113281 424.246094 L 91.113281 568.683594 C 91.113281 569.941406 91.113281 571.195312 91.742188 572.453125 C 90.484375 573.078125 89.859375 573.707031 88.601562 574.335938 L 12.640625 637.132812 C 4.480469 644.042969 1.34375 654.71875 5.109375 664.765625 C 8.875 674.8125 18.292969 681.09375 28.964844 681.09375 L 782.292969 681.09375 C 792.964844 681.09375 802.378906 674.1875 806.148438 664.765625 C 808.65625 655.347656 805.519531 644.042969 797.359375 637.132812 Z M 28.335938 656.601562 L 104.296875 593.804688 L 705.703125 593.804688 L 781.664062 656.601562 Z M 28.335938 656.601562 " fill-opacity="1" fill-rule="nonzero"/></g><path fill="rgb(11.759949%, 79.60968%, 65.879822%)" d="M 15.78125 458.785156 C 18.917969 458.785156 22.058594 457.53125 24.570312 455.019531 L 98.648438 380.917969 C 121.875 398.5 149.496094 408.546875 179 408.546875 C 214.15625 408.546875 247.429688 394.730469 271.910156 369.613281 C 323.390625 318.117188 323.390625 234.59375 271.910156 183.101562 C 246.800781 157.980469 214.15625 144.164062 179 144.164062 C 143.847656 144.164062 110.574219 157.980469 86.089844 183.101562 C 36.496094 232.710938 34.613281 312.464844 80.441406 363.960938 L 6.992188 437.433594 C 1.96875 442.457031 1.96875 449.996094 6.992188 455.019531 C 9.503906 457.53125 12.640625 458.785156 15.78125 458.785156 Z M 103.667969 201.3125 C 124.386719 180.589844 152.007812 169.914062 179 169.914062 C 206.625 169.914062 233.617188 180.589844 254.335938 201.3125 C 295.765625 242.757812 295.765625 310.582031 254.335938 352.027344 C 233.617188 372.753906 205.996094 383.429688 179 383.429688 C 151.378906 383.429688 124.386719 372.753906 103.667969 352.027344 C 61.609375 310.582031 61.609375 242.757812 103.667969 201.3125 Z M 103.667969 201.3125 " fill-opacity="1" fill-rule="nonzero"/><g clip-path="url(#clip-1)"><path fill="rgb(11.759949%, 79.60968%, 65.879822%)" d="M 241.777344 436.808594 C 238.640625 436.808594 235.5 438.0625 232.988281 440.574219 L 179 500.863281 L 179 433.667969 C 170.210938 433.667969 162.050781 433.039062 153.890625 431.78125 L 153.890625 531.003906 C 153.890625 537.914062 159.539062 543.566406 166.445312 543.566406 L 656.109375 543.566406 C 663.015625 543.566406 668.664062 537.914062 668.664062 531.003906 C 668.664062 524.097656 663.015625 518.445312 656.109375 518.445312 L 649.832031 518.445312 L 649.832031 361.449219 C 649.832031 347.632812 638.53125 336.328125 624.71875 336.328125 L 599.609375 336.328125 C 585.796875 336.328125 574.5 347.632812 574.5 361.449219 L 574.5 518.445312 L 549.386719 518.445312 L 549.386719 411.6875 C 549.386719 397.871094 538.085938 386.566406 524.277344 386.566406 L 499.164062 386.566406 C 485.355469 386.566406 474.054688 397.871094 474.054688 411.6875 L 474.054688 518.445312 L 448.945312 518.445312 L 448.945312 461.925781 C 448.945312 448.109375 437.644531 436.808594 423.832031 436.808594 L 398.722656 436.808594 C 384.910156 436.808594 373.609375 448.109375 373.609375 461.925781 L 373.609375 518.445312 L 196.578125 518.445312 L 246.800781 461.925781 L 329.667969 461.925781 C 332.804688 461.925781 335.945312 460.671875 338.457031 458.160156 L 466.523438 330.050781 L 549.386719 330.050781 C 552.527344 330.050781 555.664062 328.792969 558.175781 326.28125 L 712.609375 171.796875 L 712.609375 185.613281 C 712.609375 192.519531 718.257812 198.171875 725.164062 198.171875 C 732.070312 198.171875 737.71875 192.519531 737.71875 185.613281 L 737.71875 141.652344 C 737.71875 141.652344 737.71875 141.027344 737.71875 141.027344 C 737.71875 141.027344 737.71875 140.398438 737.71875 140.398438 C 737.71875 139.140625 737.09375 138.511719 737.09375 137.257812 C 736.464844 136 735.835938 135.375 735.207031 134.117188 C 735.207031 134.117188 734.582031 133.488281 734.582031 133.488281 C 733.953125 132.863281 733.324219 132.234375 732.070312 130.976562 C 731.441406 130.351562 730.1875 129.722656 728.929688 129.722656 C 728.929688 129.722656 728.304688 129.722656 728.304688 129.722656 C 727.046875 129.722656 726.417969 129.09375 725.164062 129.09375 L 674.941406 129.09375 C 668.035156 129.09375 662.386719 134.746094 662.386719 141.652344 C 662.386719 148.5625 668.035156 154.214844 674.941406 154.214844 L 695.03125 154.214844 L 544.367188 304.929688 L 461.5 304.929688 C 458.359375 304.929688 455.222656 306.1875 452.710938 308.699219 L 324.644531 436.808594 Z M 599.609375 361.449219 L 624.71875 361.449219 L 624.71875 518.445312 L 599.609375 518.445312 Z M 499.164062 411.6875 L 524.277344 411.6875 L 524.277344 518.445312 L 499.164062 518.445312 Z M 398.722656 461.925781 L 423.832031 461.925781 L 423.832031 518.445312 L 398.722656 518.445312 Z M 398.722656 461.925781 " fill-opacity="1" fill-rule="nonzero"/></g><path fill="rgb(11.759949%, 79.60968%, 65.879822%)" d="M 590.191406 223.292969 L 326.527344 223.292969 C 329.667969 231.457031 331.550781 239.621094 333.433594 248.410156 L 565.082031 248.410156 Z M 590.191406 223.292969 " fill-opacity="1" fill-rule="nonzero"/></svg>