<?xml version="1.0" encoding="UTF-8"?><svg xmlns="http://www.w3.org/2000/svg" xmlns:xlink="http://www.w3.org/1999/xlink" contentScriptType="text/ecmascript" width="810" zoomAndPan="magnify" contentStyleType="text/css" viewBox="0 0 810 809.999993" height="809.999993" preserveAspectRatio="xMidYMid meet" version="1.0"><defs><clipPath id="clip-0"><path d="M 107.125 45.574219 L 702.625 45.574219 L 702.625 764.074219 L 107.125 764.074219 Z M 107.125 45.574219 " clip-rule="nonzero"/></clipPath></defs><path fill="rgb(11.759949%, 79.60968%, 65.879822%)" d="M 337.460938 382.636719 L 472.289062 382.636719 C 478.46875 382.636719 483.527344 377.578125 483.527344 371.398438 C 483.527344 365.222656 478.46875 360.164062 472.289062 360.164062 L 337.460938 360.164062 C 331.28125 360.164062 326.226562 365.222656 326.226562 371.398438 C 326.226562 377.578125 331.28125 382.636719 337.460938 382.636719 Z M 337.460938 382.636719 " fill-opacity="1" fill-rule="nonzero"/><path fill="rgb(11.759949%, 79.60968%, 65.879822%)" d="M 337.460938 427.574219 L 472.289062 427.574219 C 478.46875 427.574219 483.527344 422.519531 483.527344 416.339844 C 483.527344 410.160156 478.46875 405.105469 472.289062 405.105469 L 337.460938 405.105469 C 331.28125 405.105469 326.226562 410.160156 326.226562 416.339844 C 326.226562 422.519531 331.28125 427.574219 337.460938 427.574219 Z M 337.460938 427.574219 " fill-opacity="1" fill-rule="nonzero"/><path fill="rgb(11.759949%, 79.60968%, 65.879822%)" d="M 371.167969 483.75 C 371.167969 502.289062 386.335938 517.457031 404.875 517.457031 C 423.414062 517.457031 438.582031 502.289062 438.582031 483.75 C 438.582031 465.210938 423.414062 450.046875 404.875 450.046875 C 386.335938 450.046875 371.167969 465.210938 371.167969 483.75 Z M 416.113281 483.75 C 416.113281 489.929688 411.054688 494.984375 404.875 494.984375 C 398.695312 494.984375 393.640625 489.929688 393.640625 483.75 C 393.640625 477.570312 398.695312 472.515625 404.875 472.515625 C 411.054688 472.515625 416.113281 477.570312 416.113281 483.75 Z M 416.113281 483.75 " fill-opacity="1" fill-rule="nonzero"/><path fill="rgb(11.759949%, 79.60968%, 65.879822%)" d="M 303.753906 677.554688 C 309.933594 677.554688 316.675781 674.746094 321.167969 670.25 L 330.15625 661.261719 C 334.652344 656.769531 337.460938 650.027344 337.460938 643.847656 C 337.460938 637.667969 335.214844 632.613281 331.28125 628.121094 L 325.664062 622.503906 C 328.472656 617.445312 330.71875 611.828125 332.40625 606.773438 L 340.269531 606.773438 C 352.628906 606.773438 362.742188 596.101562 362.742188 582.617188 L 362.742188 569.699219 C 362.742188 556.214844 352.628906 545.542969 340.269531 545.542969 L 332.40625 545.542969 C 330.71875 539.925781 328.472656 534.871094 325.664062 529.8125 L 331.28125 524.195312 C 335.773438 519.703125 338.023438 513.523438 337.460938 507.34375 C 336.898438 501.164062 334.652344 495.546875 330.15625 491.054688 L 321.167969 482.066406 C 316.675781 477.570312 309.933594 474.761719 303.753906 474.761719 C 298.136719 474.761719 292.515625 477.007812 288.023438 480.941406 L 282.40625 486.558594 C 277.347656 483.75 271.730469 481.503906 266.675781 479.816406 L 266.675781 472.515625 C 266.675781 460.15625 256 450.046875 242.519531 450.046875 L 229.597656 450.046875 C 216.113281 450.046875 205.441406 460.15625 205.441406 472.515625 L 205.441406 480.378906 C 199.820312 482.066406 194.765625 484.3125 189.710938 487.121094 L 184.089844 481.503906 C 180.160156 477.570312 174.539062 475.324219 168.921875 475.324219 C 162.742188 475.324219 156 478.132812 151.507812 482.625 L 142.519531 491.613281 C 132.96875 501.164062 132.96875 515.769531 141.394531 524.757812 L 147.011719 530.375 C 144.203125 535.429688 141.957031 541.046875 140.273438 546.105469 L 132.40625 546.105469 C 120.046875 546.105469 109.933594 556.777344 109.933594 570.261719 L 109.933594 583.179688 C 109.933594 596.660156 120.046875 607.335938 132.40625 607.335938 L 140.273438 607.335938 C 141.957031 612.953125 144.203125 618.007812 147.011719 623.0625 L 141.394531 628.683594 C 132.40625 637.667969 132.96875 652.273438 142.519531 661.824219 L 151.507812 670.8125 C 156 675.308594 162.742188 678.117188 168.921875 678.117188 C 175.101562 678.117188 180.160156 675.867188 184.652344 671.9375 L 190.269531 666.320312 C 195.328125 669.128906 200.945312 671.375 206.5625 673.058594 L 206.5625 680.925781 C 206.5625 693.28125 217.238281 703.394531 230.71875 703.394531 L 243.640625 703.394531 C 257.125 703.394531 267.796875 693.28125 267.796875 680.925781 L 267.796875 673.058594 C 273.417969 671.375 278.472656 669.128906 283.527344 666.320312 L 289.148438 671.9375 C 292.515625 675.308594 298.136719 677.554688 303.753906 677.554688 Z M 236.339844 632.613281 C 205.441406 632.613281 180.160156 607.335938 180.160156 576.4375 C 180.160156 545.542969 205.441406 520.265625 236.339844 520.265625 C 267.238281 520.265625 292.515625 545.542969 292.515625 576.4375 C 292.515625 607.335938 267.238281 632.613281 236.339844 632.613281 Z M 236.339844 632.613281 " fill-opacity="1" fill-rule="nonzero"/><g clip-path="url(#clip-0)"><path fill="rgb(11.759949%, 79.60968%, 65.879822%)" d="M 668.917969 287.136719 L 635.210938 287.136719 C 616.671875 287.136719 601.503906 302.304688 601.503906 320.84375 L 601.503906 337.695312 L 579.03125 337.695312 L 579.03125 281.519531 C 579.03125 262.984375 563.863281 247.816406 545.324219 247.816406 L 455.4375 247.816406 L 455.4375 225.34375 L 489.144531 225.34375 C 507.683594 225.34375 522.851562 210.179688 522.851562 191.640625 L 522.851562 79.289062 C 522.851562 60.753906 507.683594 45.585938 489.144531 45.585938 L 320.605469 45.585938 C 302.066406 45.585938 286.898438 60.753906 286.898438 79.289062 L 286.898438 191.640625 C 286.898438 210.179688 302.066406 225.34375 320.605469 225.34375 L 354.316406 225.34375 L 354.316406 247.816406 L 264.425781 247.816406 C 245.886719 247.816406 230.71875 262.984375 230.71875 281.519531 L 230.71875 337.695312 L 208.25 337.695312 L 208.25 320.84375 C 208.25 302.304688 193.078125 287.136719 174.539062 287.136719 L 140.832031 287.136719 C 122.292969 287.136719 107.125 302.304688 107.125 320.84375 L 107.125 532.0625 C 108.25 530.9375 109.933594 530.375 111.058594 529.253906 C 112.742188 528.128906 114.429688 527.566406 116.113281 527.003906 C 108.8125 510.152344 112.742188 489.929688 126.226562 475.886719 L 135.214844 466.898438 C 144.203125 457.910156 156 452.855469 168.359375 452.855469 C 174.539062 452.855469 180.71875 453.976562 185.777344 456.222656 C 186.339844 454.539062 187.460938 452.855469 188.585938 450.605469 C 188.585938 450.046875 189.148438 450.046875 189.148438 449.484375 C 190.269531 447.796875 191.394531 446.675781 192.519531 444.988281 C 193.078125 444.429688 193.078125 443.867188 193.640625 443.304688 C 194.765625 442.179688 195.328125 441.617188 196.449219 440.496094 C 197.574219 439.933594 198.136719 438.808594 199.261719 438.25 C 199.820312 437.6875 200.945312 437.125 201.507812 436.5625 C 202.070312 436 203.191406 435.441406 204.316406 434.878906 C 205.441406 434.316406 206.5625 433.191406 208.25 432.632812 L 208.25 405.105469 L 230.71875 405.105469 L 230.71875 427.574219 L 242.519531 427.574219 C 244.203125 427.574219 246.449219 427.574219 248.136719 428.136719 C 249.820312 428.136719 251.507812 428.699219 252.628906 428.699219 L 252.628906 281.519531 C 252.628906 275.339844 257.6875 270.285156 263.867188 270.285156 L 544.761719 270.285156 C 550.941406 270.285156 555.996094 275.339844 555.996094 281.519531 L 555.996094 607.335938 C 555.996094 613.515625 550.941406 618.570312 544.761719 618.570312 L 368.921875 618.570312 C 364.988281 621.941406 361.054688 624.1875 356.5625 625.871094 C 358.808594 631.492188 359.933594 637.109375 359.933594 643.289062 C 359.933594 655.644531 354.875 668.003906 345.886719 676.429688 L 336.898438 685.417969 C 327.910156 694.40625 316.113281 699.460938 303.753906 699.460938 C 297.574219 699.460938 291.957031 698.339844 286.898438 696.089844 L 286.898438 730.359375 C 286.898438 748.894531 302.066406 764.0625 320.605469 764.0625 L 354.316406 764.0625 C 372.855469 764.0625 388.023438 748.894531 388.023438 730.359375 L 388.023438 640.476562 L 432.964844 640.476562 L 432.964844 730.359375 C 432.964844 748.894531 448.132812 764.0625 466.671875 764.0625 L 500.378906 764.0625 C 518.917969 764.0625 534.089844 748.894531 534.089844 730.359375 L 534.089844 640.476562 L 545.324219 640.476562 C 563.863281 640.476562 579.03125 625.3125 579.03125 606.773438 L 579.03125 404.542969 L 601.503906 404.542969 L 601.503906 550.597656 C 601.503906 569.136719 616.671875 584.304688 635.210938 584.304688 L 668.917969 584.304688 C 687.457031 584.304688 702.625 569.136719 702.625 550.597656 L 702.625 320.84375 C 702.625 302.304688 687.457031 287.136719 668.917969 287.136719 Z M 230.71875 382.636719 L 208.25 382.636719 L 208.25 360.164062 L 230.71875 360.164062 Z M 393.640625 152.316406 L 416.113281 152.316406 C 422.292969 152.316406 427.347656 157.375 427.347656 163.554688 C 427.347656 169.730469 422.292969 174.789062 416.113281 174.789062 L 393.640625 174.789062 C 387.460938 174.789062 382.402344 169.730469 382.402344 163.554688 C 382.402344 157.375 387.460938 152.316406 393.640625 152.316406 Z M 359.933594 118.613281 L 343.078125 118.613281 C 336.898438 118.613281 331.84375 113.558594 331.84375 107.378906 C 331.84375 101.199219 336.898438 96.144531 343.078125 96.144531 L 359.933594 96.144531 C 366.113281 96.144531 371.167969 101.199219 371.167969 107.378906 C 371.167969 113.558594 366.113281 118.613281 359.933594 118.613281 Z M 432.964844 247.816406 L 376.785156 247.816406 L 376.785156 225.34375 L 432.964844 225.34375 Z M 438.582031 107.378906 C 438.582031 101.199219 443.640625 96.144531 449.820312 96.144531 L 466.671875 96.144531 C 472.851562 96.144531 477.910156 101.199219 477.910156 107.378906 C 477.910156 113.558594 472.851562 118.613281 466.671875 118.613281 L 449.820312 118.613281 C 443.640625 118.613281 438.582031 113.558594 438.582031 107.378906 Z M 601.503906 382.636719 L 579.03125 382.636719 L 579.03125 360.164062 L 601.503906 360.164062 Z M 601.503906 382.636719 " fill-opacity="1" fill-rule="nonzero"/></g></svg>