<?xml version="1.0" encoding="UTF-8"?><svg xmlns="http://www.w3.org/2000/svg" xmlns:xlink="http://www.w3.org/1999/xlink" contentScriptType="text/ecmascript" width="810" zoomAndPan="magnify" contentStyleType="text/css" viewBox="0 0 810 809.999993" height="809.999993" preserveAspectRatio="xMidYMid meet" version="1.0"><defs><clipPath id="clip-0"><path d="M 133 322 L 454 322 L 454 778.078125 L 133 778.078125 Z M 133 322 " clip-rule="nonzero"/></clipPath></defs><path fill="rgb(11.759949%, 79.60968%, 65.879822%)" d="M 490.089844 584.46875 L 550.460938 712.742188 L 572.222656 702.488281 L 515.746094 582.5 C 510.300781 584.15625 504.621094 585.125 498.796875 585.125 C 495.863281 585.125 492.953125 584.898438 490.089844 584.46875 Z M 490.089844 584.46875 " fill-opacity="1" fill-rule="nonzero"/><g clip-path="url(#clip-0)"><path fill="rgb(11.759949%, 79.60968%, 65.879822%)" d="M 441.808594 538.574219 L 399.984375 544.25 L 324.949219 570.523438 L 153.082031 322.824219 L 133.320312 336.546875 L 313.226562 595.832031 L 356.515625 778.015625 L 379.921875 772.453125 L 339.550781 602.585938 L 453.027344 562.855469 C 447.375 555.65625 443.613281 547.320312 441.808594 538.574219 Z M 441.808594 538.574219 " fill-opacity="1" fill-rule="nonzero"/></g><path fill="rgb(11.759949%, 79.60968%, 65.879822%)" d="M 177.058594 184.292969 C 204.554688 225.84375 260.523438 237.230469 302.058594 209.726562 C 343.601562 182.222656 354.980469 126.246094 327.484375 84.695312 C 299.988281 43.144531 244.03125 31.75 202.488281 59.257812 C 160.949219 86.757812 149.5625 142.738281 177.058594 184.292969 Z M 315.75 128.453125 C 316.453125 150.644531 306.070312 172.699219 286.242188 185.828125 C 266.414062 198.957031 242.066406 199.898438 221.917969 190.585938 Z M 315.75 128.453125 " fill-opacity="1" fill-rule="nonzero"/><path fill="rgb(11.759949%, 79.60968%, 65.879822%)" d="M 629.242188 443.234375 L 568.503906 529.253906 L 702.074219 708.273438 C 714.6875 725.042969 735.789062 731.652344 754.894531 726.617188 C 760.992188 725.011719 766.886719 722.21875 772.238281 718.191406 C 794.355469 701.550781 798.792969 670.128906 782.152344 648.007812 Z M 629.242188 443.234375 " fill-opacity="1" fill-rule="nonzero"/><path fill="rgb(11.759949%, 79.60968%, 65.879822%)" d="M 451.195312 493.117188 L 503 419.75 L 418.992188 431.027344 L 423.507812 421.316406 L 510.195312 409.5625 L 542.371094 363.988281 L 551.367188 367.234375 L 458.726562 498.441406 C 443.078125 520.597656 448.355469 551.25 470.503906 566.902344 C 479.109375 572.984375 489 575.902344 498.792969 575.902344 C 514.207031 575.902344 529.378906 568.664062 538.949219 555.117188 L 647.171875 401.84375 L 673.914062 363.972656 C 674.074219 363.75 674.191406 363.511719 674.347656 363.285156 C 674.863281 362.53125 675.339844 361.761719 675.808594 360.980469 C 676.199219 360.332031 676.589844 359.6875 676.949219 359.03125 C 677.324219 358.34375 677.660156 357.640625 677.996094 356.933594 C 678.371094 356.164062 678.742188 355.398438 679.070312 354.621094 C 679.339844 353.980469 679.570312 353.328125 679.808594 352.683594 C 680.125 351.832031 680.445312 350.984375 680.710938 350.125 C 680.914062 349.460938 681.074219 348.789062 681.253906 348.117188 C 681.476562 347.269531 681.710938 346.417969 681.886719 345.5625 C 682.042969 344.796875 682.148438 344.027344 682.269531 343.257812 C 682.390625 342.484375 682.527344 341.714844 682.613281 340.9375 C 682.707031 340.066406 682.742188 339.1875 682.792969 338.3125 C 682.828125 337.617188 682.882812 336.925781 682.890625 336.238281 C 682.902344 335.335938 682.855469 334.425781 682.820312 333.519531 C 682.789062 332.828125 682.773438 332.144531 682.714844 331.457031 C 682.644531 330.609375 682.519531 329.757812 682.402344 328.90625 C 682.296875 328.140625 682.195312 327.375 682.054688 326.613281 C 681.914062 325.867188 681.734375 325.121094 681.558594 324.375 C 681.351562 323.503906 681.136719 322.636719 680.882812 321.773438 C 680.804688 321.503906 680.757812 321.238281 680.675781 320.96875 C 680.546875 320.558594 680.371094 320.179688 680.234375 319.777344 C 679.929688 318.886719 679.613281 318.003906 679.257812 317.128906 C 678.992188 316.476562 678.707031 315.835938 678.414062 315.199219 C 678.042969 314.375 677.648438 313.570312 677.226562 312.765625 C 676.886719 312.117188 676.53125 311.476562 676.160156 310.847656 C 675.726562 310.105469 675.273438 309.375 674.800781 308.652344 C 674.382812 308.015625 673.953125 307.390625 673.503906 306.777344 C 673.015625 306.105469 672.511719 305.449219 671.988281 304.800781 C 671.492188 304.183594 670.980469 303.585938 670.457031 302.996094 C 669.921875 302.398438 669.375 301.808594 668.808594 301.234375 C 668.226562 300.644531 667.632812 300.078125 667.027344 299.523438 C 666.457031 298.996094 665.875 298.480469 665.269531 297.976562 C 664.613281 297.429688 663.941406 296.90625 663.257812 296.394531 C 662.875 296.109375 662.527344 295.792969 662.132812 295.511719 C 661.875 295.328125 661.601562 295.1875 661.335938 295.007812 C 660.679688 294.5625 660.003906 294.148438 659.328125 293.734375 C 658.582031 293.28125 657.839844 292.828125 657.078125 292.421875 C 656.511719 292.113281 655.925781 291.835938 655.34375 291.550781 C 654.457031 291.117188 653.570312 290.683594 652.667969 290.308594 C 652.171875 290.097656 651.664062 289.921875 651.160156 289.734375 C 650.167969 289.355469 649.179688 288.988281 648.171875 288.679688 C 647.671875 288.527344 647.15625 288.40625 646.652344 288.265625 C 645.640625 287.992188 644.636719 287.722656 643.613281 287.511719 C 643.011719 287.386719 642.40625 287.308594 641.800781 287.207031 C 640.867188 287.054688 639.9375 286.894531 639 286.796875 C 638.273438 286.71875 637.539062 286.691406 636.808594 286.644531 C 635.972656 286.589844 635.144531 286.53125 634.308594 286.523438 C 633.519531 286.515625 632.722656 286.554688 631.929688 286.585938 C 631.128906 286.617188 630.335938 286.636719 629.542969 286.710938 C 628.777344 286.777344 628.007812 286.890625 627.242188 286.996094 C 626.394531 287.113281 625.554688 287.222656 624.710938 287.378906 C 624.023438 287.507812 623.335938 287.675781 622.652344 287.835938 C 621.726562 288.054688 620.804688 288.28125 619.890625 288.550781 C 619.640625 288.625 619.390625 288.667969 619.140625 288.742188 L 417.898438 351.710938 C 392.6875 305.925781 390.085938 262.648438 394.878906 210.851562 C 405.199219 206.789062 416.417969 202.191406 427.65625 197.25 C 486.832031 171.203125 524.796875 146.464844 517.773438 110.367188 C 510.707031 74.0625 463.867188 69.1875 443.859375 67.105469 C 415.296875 64.148438 375.972656 63.777344 324.34375 66.019531 C 328.273438 70.160156 331.914062 74.675781 335.175781 79.601562 C 345.324219 94.9375 350.632812 112.085938 351.511719 129.25 C 382.277344 128.378906 404.765625 128.714844 421.117188 129.605469 C 401.15625 139.316406 375.203125 150.203125 348.304688 159.992188 C 342.28125 182.734375 328.257812 203.441406 307.148438 217.414062 C 271.320312 241.136719 225.601562 238.53125 192.9375 214.273438 C 192.410156 214.578125 191.871094 214.859375 191.359375 215.199219 C 169.082031 229.730469 145.5625 243.640625 124.90625 254.78125 C 137.042969 240.011719 153.382812 221.214844 175.3125 197.4375 C 173.222656 194.878906 171.238281 192.191406 169.375 189.378906 C 156.75 170.300781 151.609375 148.429688 153.191406 127.207031 C 108.5625 174.226562 75.734375 211.933594 55.492188 239.464844 C 39.953125 260.605469 11.023438 299.957031 34.902344 328.941406 C 43.472656 339.339844 54.761719 343.542969 67.816406 343.542969 C 92.9375 343.542969 124.5625 327.96875 155.761719 311.035156 C 164.292969 306.402344 172.65625 301.660156 180.492188 297.097656 C 209.78125 382.527344 254.058594 442.726562 316.253906 517.703125 C 319 521.019531 322.105469 523.789062 325.398438 526.050781 C 336.003906 536.027344 350.839844 541.328125 366.394531 539.242188 L 368.855469 538.910156 L 440.640625 529.273438 C 440.105469 516.800781 443.464844 504.074219 451.195312 493.117188 Z M 451.195312 493.117188 " fill-opacity="1" fill-rule="nonzero"/></svg>